<?xml version="1.0" encoding="UTF-8"?>
<svg width="800px" height="600px" viewBox="0 0 800 600" version="1.1" xmlns="http://www.w3.org/2000/svg">
    <title>Developer</title>
    <g id="Developer" stroke="none" stroke-width="1" fill="none" fill-rule="evenodd">
        <rect fill="#F8F9FA" x="0" y="0" width="800" height="600"></rect>
        <g id="Laptop" transform="translate(200, 200)">
            <rect id="Screen" fill="#0077B5" x="50" y="20" width="300" height="200" rx="10"></rect>
            <rect id="Base" fill="#333333" x="10" y="220" width="380" height="20" rx="5"></rect>
            <circle id="Dot1" fill="#FFFFFF" cx="100" cy="120" r="8"></circle>
            <circle id="Dot2" fill="#FFFFFF" cx="130" cy="120" r="8"></circle>
            <circle id="Dot3" fill="#FFFFFF" cx="160" cy="120" r="8"></circle>
            <rect id="Line1" fill="#FFFFFF" x="100" y="70" width="200" height="10" rx="5"></rect>
            <rect id="Line2" fill="#FFFFFF" x="100" y="90" width="180" height="10" rx="5"></rect>
            <rect id="Line3" fill="#FFFFFF" x="100" y="150" width="160" height="10" rx="5"></rect>
            <rect id="Line4" fill="#FFFFFF" x="100" y="170" width="190" height="10" rx="5"></rect>
        </g>
        <g id="Person" transform="translate(350, 100)">
            <circle id="Head" fill="#FFD7B5" cx="50" cy="50" r="50"></circle>
            <rect id="Body" fill="#0077B5" x="0" y="100" width="100" height="150" rx="10"></rect>
            <rect id="Arm1" fill="#0077B5" x="-20" y="110" width="30" height="120" rx="10"></rect>
            <rect id="Arm2" fill="#0077B5" x="90" y="110" width="30" height="120" rx="10"></rect>
        </g>
    </g>
</svg> 